<svg width="12" height="18" viewBox="0 0 12 18" fill="none" xmlns="http://www.w3.org/2000/svg">
<path d="M11.8387 0.108231C11.7557 0.038854 11.65 0.000499328 11.5406 4.84152e-06C11.4313 -0.000489645 11.3252 0.0369084 11.2415 0.105531L1.20298 8.32665C1.14416 8.37492 1.09865 8.43675 1.07057 8.50652C1.04248 8.57629 1.03272 8.6518 1.04217 8.72618C1.05161 8.80056 1.07996 8.87147 1.12465 8.93246C1.16934 8.99345 1.22894 9.04259 1.29806 9.07541L4.30454 10.5036L0.0671237 17.3163C0.0102634 17.4075 -0.0114846 17.5155 0.00576537 17.6209C0.0230153 17.7263 0.078139 17.8223 0.161291 17.8918C0.244443 17.9612 0.350207 17.9996 0.459692 18C0.569178 18.0004 0.675254 17.9629 0.758974 17.8941L10.7975 9.67299C10.8563 9.62468 10.9018 9.56283 10.9298 9.49303C10.9579 9.42324 10.9676 9.34772 10.9581 9.27333C10.9486 9.19894 10.9202 9.12805 10.8755 9.06708C10.8308 9.00611 10.7711 8.95701 10.702 8.92422L7.69595 7.49599L11.9334 0.683304C11.9899 0.592113 12.0115 0.484303 11.9942 0.379072C11.9768 0.273842 11.9218 0.178023 11.8387 0.108681V0.108231Z" fill="white"/>
</svg>
